<svg width="32" height="32" viewBox="0 0 32 32" fill="none" xmlns="http://www.w3.org/2000/svg">
<path d="M23 15H9C8.73478 15 8.48043 15.1054 8.29289 15.2929C8.10536 15.4804 8 15.7348 8 16V30C8.00013 30.1651 8.04112 30.3275 8.1193 30.4729C8.19749 30.6182 8.31043 30.742 8.44807 30.8331C8.58571 30.9242 8.74375 30.9798 8.90811 30.995C9.07246 31.0101 9.23802 30.9844 9.39 30.92L16 28.09L22.61 30.92C22.7333 30.9725 22.866 30.9997 23 31C23.196 30.9985 23.3873 30.9394 23.55 30.83C23.6876 30.7394 23.8006 30.6162 23.8791 30.4715C23.9576 30.3267 23.9991 30.1647 24 30V16C24 15.7348 23.8946 15.4804 23.7071 15.2929C23.5196 15.1054 23.2652 15 23 15Z" fill="#FFC661"/>
<path d="M24 16V30C23.9991 30.1647 23.9576 30.3267 23.8791 30.4715C23.8006 30.6162 23.6876 30.7394 23.55 30.83C23.3873 30.9394 23.196 30.9985 23 31C22.866 30.9997 22.7333 30.9725 22.61 30.92L16 28.09V15H23C23.2652 15 23.5196 15.1054 23.7071 15.2929C23.8946 15.4804 24 15.7348 24 16Z" fill="#E49F4E"/>
<path d="M16 23C22.0751 23 27 18.0751 27 12C27 5.92487 22.0751 1 16 1C9.92487 1 5 5.92487 5 12C5 18.0751 9.92487 23 16 23Z" fill="#EEF5FD"/>
<path d="M27 12C27 14.9174 25.8411 17.7153 23.7782 19.7782C21.7153 21.8411 18.9174 23 16 23V1C18.9174 1 21.7153 2.15893 23.7782 4.22183C25.8411 6.28473 27 9.08262 27 12Z" fill="#D7E2F2"/>
<path d="M22.87 10.13C22.7215 9.66297 22.4283 9.25527 22.0328 8.96585C21.6374 8.67644 21.1601 8.52029 20.67 8.52H19C18.9273 8.51677 18.8574 8.49096 18.8001 8.44615C18.7427 8.40134 18.7007 8.33977 18.68 8.27L18.18 6.66C18.0415 6.17824 17.7499 5.75462 17.3495 5.4531C16.949 5.15158 16.4613 4.98851 15.96 4.98851C15.4587 4.98851 14.971 5.15158 14.5706 5.4531C14.1701 5.75462 13.8786 6.17824 13.74 6.66L13.24 8.27C13.2193 8.33977 13.1773 8.40134 13.12 8.44615C13.0626 8.49096 12.9927 8.51677 12.92 8.52H11.33C10.84 8.52029 10.3627 8.67644 9.96719 8.96585C9.57171 9.25527 9.27853 9.66297 9.13002 10.13C8.95925 10.6085 8.94676 11.1292 9.0944 11.6153C9.24204 12.1015 9.54199 12.5273 9.95002 12.83L11.27 13.83C11.3339 13.8836 11.3804 13.955 11.4036 14.0352C11.4267 14.1153 11.4255 14.2006 11.4 14.28L10.9 15.89C10.7415 16.3756 10.7434 16.8993 10.9055 17.3837C11.0676 17.8681 11.3812 18.2876 11.8 18.58C12.1834 18.8595 12.6456 19.0101 13.12 19.01C13.6186 19.0057 14.1025 18.8409 14.5 18.54L15.82 17.54C15.8719 17.501 15.9351 17.48 16 17.48C16.0649 17.48 16.1281 17.501 16.18 17.54L17.5 18.54C17.8895 18.8321 18.3632 18.99 18.85 18.99C19.3369 18.99 19.8106 18.8321 20.2 18.54C20.6188 18.2476 20.9325 17.8281 21.0946 17.3437C21.2566 16.8593 21.2585 16.3356 21.1 15.85L20.6 14.24C20.5746 14.1606 20.5733 14.0753 20.5965 13.9952C20.6196 13.915 20.6661 13.8436 20.73 13.79L22.05 12.79C22.4498 12.4898 22.7444 12.0708 22.8917 11.5931C23.039 11.1153 23.0314 10.6032 22.87 10.13Z" fill="#FFC661"/>
<path d="M22.05 12.83L20.73 13.83C20.6661 13.8836 20.6196 13.9551 20.5964 14.0352C20.5733 14.1153 20.5745 14.2006 20.6 14.28L20.83 15.01L21.1 15.89C21.2585 16.3756 21.2566 16.8993 21.0945 17.3837C20.9325 17.8682 20.6188 18.2876 20.2 18.58C19.8105 18.8721 19.3368 19.03 18.85 19.03C18.3632 19.03 17.8895 18.8721 17.5 18.58L16.18 17.58C16.1274 17.5423 16.0647 17.5213 16 17.52V5C16.5002 4.99765 16.9876 5.15843 17.3882 5.45799C17.7888 5.75754 18.0808 6.17954 18.22 6.66L18.72 8.27C18.7407 8.33977 18.7827 8.40135 18.84 8.44616C18.8974 8.49096 18.9673 8.51678 19.04 8.52H20.67C21.1601 8.5203 21.6373 8.67644 22.0328 8.96586C22.4283 9.25528 22.7215 9.66298 22.87 10.13C23.0408 10.6085 23.0533 11.1292 22.9056 11.6153C22.758 12.1015 22.458 12.5273 22.05 12.83Z" fill="#E49F4E"/>
</svg>
